<svg xmlns="http://www.w3.org/2000/svg" version="1.1" xmlns:xlink="http://www.w3.org/1999/xlink" xmlns:svgjs="http://svgjs.dev/svgjs" width="2000" height="525" viewBox="0 0 2000 525"><g transform="matrix(1,0,0,1,-1.2121212121212466,0.3352418159773265)"><svg viewBox="0 0 396 104" data-background-color="#ffffff" preserveAspectRatio="xMidYMid meet" height="525" width="2000" xmlns="http://www.w3.org/2000/svg" xmlns:xlink="http://www.w3.org/1999/xlink"><g id="tight-bounds" transform="matrix(1,0,0,1,0.2400000000000091,-0.06640980735551238)"><svg viewBox="0 0 395.52 104.13281961471102" height="104.13281961471102" width="395.52"><g><svg viewBox="0 0 395.52 104.13281961471102" height="104.13281961471102" width="395.52"><g><svg viewBox="0 0 395.52 104.13281961471102" height="104.13281961471102" width="395.52"><g><svg viewBox="0 0 395.52 104.13281961471102" height="104.13281961471102" width="395.52"><g><svg viewBox="0 0 395.52 104.13281961471102" height="104.13281961471102" width="395.52"><g id="textblocktransform"><svg viewBox="0 0 395.52 104.13281961471102" height="104.13281961471102" width="395.52" id="textblock"><g><svg viewBox="0 0 395.52 104.13281961471102" height="104.13281961471102" width="395.52"><g transform="matrix(1,0,0,1,0,0)"><svg width="395.52" viewBox="-2.6 -39.9 172.28 46.1" height="104.13281961471102" data-palette-color="#151516"><path d="M11.6-35.65L11.6-34.65 12.6-34.65 12.6-33.95Q12.6-30 12.55-27 12.5-24 12.45-22L12.45-22Q12.25-13.9 12.25-9.7L12.25-9.7Q12.25-4.25 12.55 0.95L12.55 0.95Q11.75 1.75 8.9 1.75L8.9 1.75 6.65 1.7Q5.9 1.65 4.55 1.65L4.55 1.65Q3.45 1.65 2.4 1.9L2.4 1.9 2.45 0.7Q1.6 0.8 1.4 0.9L1.4 0.9Q1.75-4.25 1.75-8.5L1.75-8.5Q1.75-11.35 1.7-13.53 1.65-15.7 1.6-17.1L1.6-17.1Q1.4-22.8 1.4-25.75L1.4-25.75Q1.4-30.65 1.9-35.8L1.9-35.8Q2.6-35.9 2.8-35.9L2.8-35.9Q4.2-35.9 5.7-35.8L5.7-35.8Q6.85-35.65 8.7-35.65L8.7-35.65 11.6-35.65ZM8.75-35.15Q7.55-35.15 4.85-35.3L4.85-35.3Q3.35-35.4 2.55-35.4L2.55-35.4 2.35-35.4 2.35-35.3Q1.9-31.25 1.9-25.8L1.9-25.8Q1.9-22.9 1.95-20.75 2-18.6 2.05-17.15L2.05-17.15Q2.25-11.25 2.25-8.2L2.25-8.2Q2.25-4 1.95 0.2L1.95 0.2Q2.65 0.1 3.1 0.1L3.1 0.1Q3.7 0.1 5.3 0.2L5.3 0.2Q7.1 0.3 8.1 0.3L8.1 0.3Q10.5 0.3 11.05-0.25L11.05-0.25Q10.75-5.65 10.75-11.15L10.75-11.15Q10.75-15.25 10.95-23.15L10.95-23.15Q11-25.15 11.05-28.1 11.1-31.05 11.1-34.95L11.1-34.95 11.1-35.15 8.75-35.15ZM37.2-22.2Q35-21.85 33.1-21.85L33.1-21.85Q30.75-21.85 29-22.35L29-22.35Q29.05-22.5 29.05-23.1L29.05-23.1Q28.35-23.2 28-23.35L28-23.35Q28.05-23.5 28.05-24L28.05-24Q28.05-25.05 27.55-25.4 27.05-25.75 26.15-25.75L26.15-25.75Q25.15-25.75 24.45-25.15 23.75-24.55 23.75-23.4L23.75-23.4Q23.75-22.6 24.1-22.38 24.45-22.15 24.95-22.1 25.45-22.05 25.65-22L25.65-22Q28.75-21.55 31.52-19.63 34.3-17.7 35.97-14.98 37.65-12.25 37.65-9.45L37.65-9.45Q37.65-6.1 36.15-3.55 34.65-1 32.17 0.38 29.7 1.75 26.8 1.75L26.8 1.75Q23.5 1.75 20.3 0.28 17.1-1.2 15.07-3.78 13.05-6.35 13.05-9.4L13.05-9.4 13.1-10.05 13.1-10.75Q14.45-10.95 16-10.95L16-10.95 18.9-10.9Q19.9-10.85 21.75-10.85L21.75-10.85Q21.75-10.3 21.9-9.85L21.9-9.85 22.75-9.85Q22.75-8.6 23.3-8.13 23.85-7.65 24.95-7.65L24.95-7.65Q26.05-7.65 26.8-8.25 27.55-8.85 27.55-9.95L27.55-9.95Q27.55-11.5 26.4-12.1 25.25-12.7 24.05-12.93 22.85-13.15 22.5-13.2L22.5-13.2 21.75-13.35Q20.25-13.65 19.25-14.33 18.25-15 17.1-16.15L17.1-16.15Q13.6-19.5 13.6-24.1L13.6-24.1Q13.6-27.2 15.15-29.8 16.7-32.4 19.37-33.93 22.05-35.45 25.3-35.45L25.3-35.45Q28.65-35.45 31.52-34.2 34.4-32.95 36.15-30.6 37.9-28.25 37.9-25.05L37.9-25.05Q37.9-23.8 37.6-22.2L37.6-22.2 37.2-22.2ZM36.15-23.7Q36.4-25.1 36.4-26.05L36.4-26.05Q36.4-30.5 33.22-32.73 30.05-34.95 25.3-34.95L25.3-34.95Q22.15-34.95 19.6-33.5 17.05-32.05 15.57-29.55 14.1-27.05 14.1-24.1L14.1-24.1Q14.1-22.35 14.85-20.33 15.6-18.3 17.15-16.75 18.7-15.2 20.85-14.85L20.85-14.85Q21.3-14.75 23.45-14.33 25.6-13.9 26.82-12.8 28.05-11.7 28.05-9.95L28.05-9.95Q28.05-8.55 27.15-7.85 26.25-7.15 24.95-7.15L24.95-7.15Q23.5-7.15 22.42-7.98 21.35-8.8 21.25-10.35L21.25-10.35Q19.7-10.35 18.9-10.4L18.9-10.4 16.2-10.45Q14.8-10.45 13.6-10.3L13.6-10.3 13.6-9.45Q13.6-6.5 15.4-4.3 17.2-2.1 20.02-0.93 22.85 0.25 25.85 0.25L25.85 0.25Q28.6 0.25 30.95-0.98 33.3-2.2 34.72-4.63 36.15-7.05 36.15-10.4L36.15-10.4Q36.15-13.15 34.7-15.58 33.25-18 30.82-19.6 28.4-21.2 25.6-21.5L25.6-21.5Q22.25-21.85 22.25-24.45L22.25-24.45Q22.25-25.8 23.1-26.53 23.95-27.25 25.15-27.25L25.15-27.25Q26.55-27.25 27.6-26.45 28.65-25.65 28.65-24.35L28.65-24.35Q28.65-23.9 28.6-23.75L28.6-23.75Q30.25-23.3 32.05-23.3L32.05-23.3Q33.6-23.3 36.1-23.7L36.1-23.7 36.15-23.7ZM61.9-5.75Q62-4.25 62-3.45L62-3.45Q62-1.05 61.4 1.35L61.4 1.35Q59.2 1.35 54.8 1.45L54.8 1.45 48.3 1.5Q43.85 1.5 40 1.2L40 1.2 40 0.25 39 0.2Q39-2.4 38.95-5.85 38.9-9.3 38.85-11.1L38.85-11.1Q38.7-16.5 38.7-21.95L38.7-21.95Q38.7-28.25 39.1-34.95L39.1-34.95Q43-35.15 48.12-35.27 53.25-35.4 56.6-35.4L56.6-35.4Q60.55-35.4 60.75-34.8L60.75-34.8Q60.75-34.45 60.92-34.27 61.1-34.1 61.4-34 61.7-33.9 61.75-33.8L61.75-33.8 61.75-33.85Q61.95-32.7 61.95-31.2L61.95-31.2Q61.95-30.4 61.85-28.8L61.85-28.8Q61.75-27.1 61.75-26.2L61.75-26.2Q59.2-25.6 55.3-25.6L55.3-25.6 53.5-25.6 51.55-25.65Q50-25.65 48.45-25.5L48.45-25.5Q48.45-24.75 48.35-23.55L48.35-23.55 48.3-21.9 48.3-21.45 49.2-21.4 51.15-21.45Q51.4-21.45 53.65-21.3L53.65-21.3Q53.7-21.15 53.75-20.83 53.8-20.5 53.97-20.4 54.15-20.3 54.65-20.3L54.65-20.3Q54.9-19 54.9-17.25L54.9-17.25Q54.9-15.7 54.85-14.9L54.85-14.9 54.8-12.5Q53.3-12.1 50.95-12.1L50.95-12.1Q49.1-12.1 48.7-12L48.7-12Q48.55-11.25 48.55-9.7L48.55-9.7Q48.55-8.2 48.6-7.55L48.6-7.55Q54.6-7.25 58.1-7.25L58.1-7.25Q59.3-7.25 60.9-7.35L60.9-7.35 60.9-6.75 60.95-6.3Q61.55-6.3 61.9-6.35L61.9-6.35 61.9-5.75ZM60.4-6.8Q59.65-6.75 58.25-6.75L58.25-6.75Q57-6.75 55.35-6.8 53.7-6.85 52.8-6.9L52.8-6.9Q50.1-7.05 47.3-7.05L47.3-7.05 47.25-7.1Q47.05-8.35 47.05-10.7L47.05-10.7Q47.05-12.3 47.25-13.35L47.25-13.35Q47.45-13.5 48.15-13.55 48.85-13.6 49.7-13.6L49.7-13.6Q52.3-13.6 53.3-13.9L53.3-13.9 53.35-18.25Q53.35-20 53.2-20.85L53.2-20.85 53.2-20.9Q51.85-20.9 51.15-20.95L51.15-20.95Q48.4-20.95 47.05-21.05L47.05-21.05 47-21.1Q46.8-21.85 46.8-23L46.8-23Q46.8-23.7 46.9-25L46.9-25 46.95-26.95 47.15-27Q48.05-27.1 49.1-27.1 50.15-27.1 50.5-27.1L50.5-27.1 54.45-27.1Q58.1-27.1 60.25-27.6L60.25-27.6 60.25-27.65 60.3-30Q60.4-31.6 60.4-32.4L60.4-32.4Q60.4-33.55 60.25-34.75L60.25-34.75Q60.25-34.9 56.6-34.9L56.6-34.9Q48.8-34.9 39.55-34.45L39.55-34.45Q39.25-29.6 39.25-22.45L39.25-22.45Q39.25-18.75 39.35-11.45L39.35-11.45Q39.5-5.9 39.5-0.25L39.5-0.25Q42.45 0 46.75 0L46.75 0Q48.9 0 53.4-0.1L53.4-0.1 60-0.15Q60.5-2.1 60.5-4.4L60.5-4.4Q60.5-5.2 60.4-6.7L60.4-6.7 60.4-6.8ZM86.14 1.15Q84.54 1.55 82.69 1.55L82.69 1.55 80.49 1.5Q78.99 1.4 78.24 1.4L78.24 1.4Q77.94 1.1 77.44 0.4L77.44 0.4 77.24 0.4Q74.69-2.3 72.04-9.1L72.04-9.1Q72.04-7.25 72.14-3.65L72.14-3.65Q72.24-0.25 72.24 1.15L72.24 1.15Q70.74 1.6 68.29 1.6L68.29 1.6Q65.99 1.6 63.94 1.15L63.94 1.15Q63.84 0.5 63.72 0.38 63.59 0.25 63.37 0.23 63.14 0.2 62.94 0.15L62.94 0.15Q62.74-4.2 62.74-10L62.74-10Q62.74-16.15 62.89-22.45L62.89-22.45Q62.94-24.5 62.99-28.48 63.04-32.45 63.04-35.45L63.04-35.45 64.24-35.45 67.64-35.4Q68.69-35.35 70.74-35.35L70.74-35.35 70.74-34.35 71.74-34.35Q71.79-32.4 71.79-27.85L71.79-27.85 71.79-25.8Q72.34-26.75 73.24-28.55L73.24-28.55Q73.49-28.95 74.62-31.05 75.74-33.15 77.34-35.4L77.34-35.4 78.29-35.35 81.59-35.4Q83.34-35.4 85.04-35.15L85.04-35.15 84.74-34.3 86.04-34.15Q85.24-31.55 84.02-29.13 82.79-26.7 80.84-23.35L80.84-23.35Q78.44-19.3 77.44-17L77.44-17 86.14 1.15ZM75.89-17.95Q76.79-20.05 78.09-22.33 79.39-24.6 79.64-25L79.64-25Q81.54-28.25 82.64-30.43 83.74-32.6 84.39-34.75L84.39-34.75Q83.19-34.9 81.94-34.9L81.94-34.9 78.89-34.85Q77.99-34.85 77.59-34.9L77.59-34.9Q76.34-33.05 74.34-29.35L74.34-29.35Q73.14-27.1 72.37-25.78 71.59-24.45 70.59-23.15L70.59-23.15 70.39-22.9 70.34-22.85Q70.29-24.05 70.29-26.55L70.29-26.55 70.29-31.15Q70.29-33.65 70.24-34.85L70.24-34.85Q68.39-34.85 67.44-34.9L67.44-34.9 64.49-34.95Q63.89-34.95 63.69-34.85 63.49-34.75 63.49-34.45L63.49-34.45Q63.49-28.3 63.34-22.2L63.34-22.2Q63.24-14.1 63.24-10.05L63.24-10.05Q63.24-4.6 63.44-0.25L63.44-0.25Q65.09 0.1 67.29 0.1L67.29 0.1Q69.54 0.1 70.74-0.25L70.74-0.25Q70.74-1.7 70.64-5.1L70.64-5.1Q70.54-8.9 70.54-10.7L70.54-10.7Q70.54-12.35 70.59-13.15L70.59-13.15Q71.44-11.6 72.84-8.45L72.84-8.45Q74.19-5.5 75.24-3.5 76.29-1.5 77.49-0.1L77.49-0.1 78.64-0.05Q80.54 0.05 81.59 0.05L81.59 0.05Q83.24 0.05 84.44-0.2L84.44-0.2 75.89-17.95ZM107.69 1.4Q105.69 1.75 104.49 1.75L104.49 1.75Q102.19 1.75 99.99 1.25L99.99 1.25Q99.79 0.65 99.64 0.5 99.49 0.35 99.29 0.33 99.09 0.3 98.99 0.25L98.99 0.25Q98.59-1 97.89-3.8L97.89-3.8Q97.49-5.45 97.22-6.2 96.94-6.95 96.64-6.95L96.64-6.95Q96.24-6.95 95.97-6.93 95.69-6.9 95.24-6.9L95.24-6.9Q94.89-5.95 94.54-3.85L94.54-3.85Q94.14-1.9 93.84-0.75 93.54 0.4 92.99 1.45L92.99 1.45Q92.84 1.45 92.57 1.5 92.29 1.55 91.89 1.55L91.89 1.55Q91.34 1.5 89.59 1.5L89.59 1.5 87.44 1.45 84.79 1.4 84.94 0.4 83.79 0.4 84.49-3.3Q85.89-11.4 87.54-19.28 89.19-27.15 91.69-35.45L91.69-35.45Q92.59-35.55 92.74-35.55L92.74-35.55Q92.94-35.55 94.04-35.5 95.14-35.45 98.64-35.8L98.64-35.8Q98.84-34.95 98.89-34.7L98.89-34.7 99.64-34.8Q100.09-32.25 102.79-21L102.79-21Q103.79-16.9 103.84-16.65L103.84-16.65 107.69 1.4ZM102.34-17.55L98.24-35.25Q96.04-35.05 93.89-35.05L93.89-35.05 92.84-35.05Q92.24-35.05 92.09-35L92.09-35Q89.69-26.95 88.12-19.35 86.54-11.75 84.99-3.15L84.99-3.15Q84.84-2.2 84.69-1.38 84.54-0.55 84.44-0.1L84.44-0.1 84.54-0.05 85.74-0.05 89.69 0Q90.19 0.05 90.89 0.05L90.89 0.05Q91.44 0.05 91.54 0L91.54 0 91.69-0.05Q92.14-0.8 92.39-1.85 92.64-2.9 92.94-4.65L92.94-4.65Q93.44-7.45 93.89-8.4L93.89-8.4Q94.44-8.4 94.79-8.43 95.14-8.45 95.34-8.45L95.34-8.45 95.99-8.45 96.99-8.35Q97.39-7.45 97.82-5.85 98.24-4.25 98.34-3.85L98.34-3.85Q98.84-1.5 99.34-0.2L99.34-0.2 99.39-0.2Q101.34 0.25 103.49 0.25L103.49 0.25Q104.74 0.25 106.09 0L106.09 0 106.09-0.05 102.34-17.55ZM94.74-14.25L93.54-14.3Q94.14-18.75 94.09-18.35L94.09-18.35Q94.49-21.7 94.77-23.23 95.04-24.75 95.34-24.75L95.34-24.75Q95.69-24.75 96.12-22.4 96.54-20.05 97.24-14.3L97.24-14.3 94.74-14.25ZM96.64-14.8L95.99-20.5 95.19-14.8 96.64-14.8ZM117.54-35.65L117.54-34.65 118.54-34.65 118.54-33.95Q118.54-30 118.49-27 118.44-24 118.39-22L118.39-22Q118.19-13.9 118.19-9.7L118.19-9.7Q118.19-4.25 118.49 0.95L118.49 0.95Q117.69 1.75 114.84 1.75L114.84 1.75 112.59 1.7Q111.84 1.65 110.49 1.65L110.49 1.65Q109.39 1.65 108.34 1.9L108.34 1.9 108.39 0.7Q107.54 0.8 107.34 0.9L107.34 0.9Q107.69-4.25 107.69-8.5L107.69-8.5Q107.69-11.35 107.64-13.53 107.59-15.7 107.54-17.1L107.54-17.1Q107.34-22.8 107.34-25.75L107.34-25.75Q107.34-30.65 107.84-35.8L107.84-35.8Q108.54-35.9 108.74-35.9L108.74-35.9Q110.14-35.9 111.64-35.8L111.64-35.8Q112.79-35.65 114.64-35.65L114.64-35.65 117.54-35.65ZM114.69-35.15Q113.49-35.15 110.79-35.3L110.79-35.3Q109.29-35.4 108.49-35.4L108.49-35.4 108.29-35.4 108.29-35.3Q107.84-31.25 107.84-25.8L107.84-25.8Q107.84-22.9 107.89-20.75 107.94-18.6 107.99-17.15L107.99-17.15Q108.19-11.25 108.19-8.2L108.19-8.2Q108.19-4 107.89 0.2L107.89 0.2Q108.59 0.1 109.04 0.1L109.04 0.1Q109.64 0.1 111.24 0.2L111.24 0.2Q113.04 0.3 114.04 0.3L114.04 0.3Q116.44 0.3 116.99-0.25L116.99-0.25Q116.69-5.65 116.69-11.15L116.69-11.15Q116.69-15.25 116.89-23.15L116.89-23.15Q116.94-25.15 116.99-28.1 117.04-31.05 117.04-34.95L117.04-34.95 117.04-35.15 114.69-35.15ZM121.19 1.45L121.04 0.45 120.19 0.45Q119.99-0.8 119.99-2.6L119.99-2.6 120.04-4.85Q120.09-5.35 120.09-6.15L120.09-6.15Q121.49-6.75 123.99-6.75L123.99-6.75Q125.89-6.75 127.19-6.15L127.19-6.15 127.29-5.45Q127.44-5.4 127.74-5.35 128.04-5.3 128.16-5.08 128.29-4.85 128.29-4.3L128.29-4.3Q128.29-3.35 128.14-1.43 127.99 0.5 127.89 1.5L127.89 1.5 121.19 1.45ZM126.54 0L126.54-0.1Q126.54-0.8 126.69-3.25 126.84-5.7 126.84-5.95L126.84-5.95Q126.19-6.25 123.99-6.25L123.99-6.25Q121.44-6.25 120.59-5.85L120.59-5.85Q120.59-5.25 120.54-4.8L120.54-4.8 120.49-2.35Q120.49-0.6 120.64-0.05L120.64-0.05 120.79 0 126.54 0ZM139.98-35.65L139.98-34.65 140.98-34.65 140.98-33.95Q140.98-30 140.93-27 140.88-24 140.83-22L140.83-22Q140.63-13.9 140.63-9.7L140.63-9.7Q140.63-4.25 140.93 0.95L140.93 0.95Q140.13 1.75 137.28 1.75L137.28 1.75 135.03 1.7Q134.28 1.65 132.93 1.65L132.93 1.65Q131.83 1.65 130.78 1.9L130.78 1.9 130.83 0.7Q129.98 0.8 129.78 0.9L129.78 0.9Q130.13-4.25 130.13-8.5L130.13-8.5Q130.13-11.35 130.08-13.53 130.03-15.7 129.98-17.1L129.98-17.1Q129.78-22.8 129.78-25.75L129.78-25.75Q129.78-30.65 130.28-35.8L130.28-35.8Q130.98-35.9 131.18-35.9L131.18-35.9Q132.58-35.9 134.08-35.8L134.08-35.8Q135.23-35.65 137.08-35.65L137.08-35.65 139.98-35.65ZM137.13-35.15Q135.93-35.15 133.23-35.3L133.23-35.3Q131.73-35.4 130.93-35.4L130.93-35.4 130.73-35.4 130.73-35.3Q130.28-31.25 130.28-25.8L130.28-25.8Q130.28-22.9 130.33-20.75 130.38-18.6 130.43-17.15L130.43-17.15Q130.63-11.25 130.63-8.2L130.63-8.2Q130.63-4 130.33 0.2L130.33 0.2Q131.03 0.1 131.48 0.1L131.48 0.1Q132.08 0.1 133.68 0.2L133.68 0.2Q135.48 0.3 136.48 0.3L136.48 0.3Q138.88 0.3 139.43-0.25L139.43-0.25Q139.13-5.65 139.13-11.15L139.13-11.15Q139.13-15.25 139.33-23.15L139.33-23.15Q139.38-25.15 139.43-28.1 139.48-31.05 139.48-34.95L139.48-34.95 139.48-35.15 137.13-35.15ZM164.68-28.8Q165.33-27.4 165.51-25.93 165.68-24.45 165.68-22.35L165.68-22.35 165.68-19.25Q165.68-18.5 165.63-15.6 165.58-12.7 165.38-10.25L165.38-10.25 165.23-8.6Q164.83-4 163.23-1.6L163.23-1.6Q161.83 0.35 159.11 1.28 156.38 2.2 153.53 2.2L153.53 2.2Q150.13 2.2 147.68 1.13 145.23 0.05 143.93-2.65L143.93-2.65 143.93-2.6Q143.13-3.95 142.88-5.7 142.63-7.45 142.58-9.9L142.58-9.9Q142.58-11.05 142.53-11.6L142.53-11.6Q142.28-15.85 142.28-19.5L142.28-19.5 142.28-21.35Q142.28-25.8 143.08-29.15 143.88-32.5 146.48-34L146.48-34Q149.63-35.55 153.38-35.55L153.38-35.55Q155.98-35.55 158.46-34.68 160.93-33.8 162.33-32.1L162.33-32.1Q163.98-30.45 164.68-28.75L164.68-28.75 164.68-28.8ZM153.38-35Q151.08-35 148.93-34.43 146.78-33.85 145.58-32.65L145.58-32.65Q143.83-30.7 143.31-27.88 142.78-25.05 142.78-21.35L142.78-21.35 142.78-19.6Q142.78-17.6 142.88-15.13 142.98-12.65 143.03-11.65L143.03-11.65 143.18-8.4Q143.28-3.25 145.66-1.28 148.03 0.7 152.53 0.7L152.53 0.7Q155.28 0.7 157.91-0.2 160.53-1.1 161.83-2.9L161.83-2.9Q163.38-5.3 163.73-9.65L163.73-9.65 163.88-11.3Q164.13-14.5 164.13-18.9L164.13-18.9 164.13-23.95Q164.13-25.8 163.96-27.1 163.78-28.4 163.23-29.6L163.23-29.6Q162.28-32.3 159.53-33.65 156.78-35 153.38-35L153.38-35ZM157.88-17.4L157.88-15 157.88-13.3Q157.88-10.75 157.71-9.7 157.53-8.65 156.78-7.85L156.78-7.85Q156.18-7.1 155.18-6.7 154.18-6.3 153.13-6.3L153.13-6.3Q151.23-6.3 150.26-7.28 149.28-8.25 148.96-9.65 148.63-11.05 148.48-13.3L148.48-13.3Q148.38-14.9 148.28-15.55L148.28-15.55Q148.18-17.25 148.18-18.1L148.18-18.1Q148.18-28.15 153.73-28.15L153.73-28.15Q156.28-28.15 157.03-25.73 157.78-23.3 157.78-20.8L157.78-20.8 157.88-17.4ZM157.28-20.8L157.28-21Q157.23-21.4 157.16-22.98 157.08-24.55 156.51-25.6 155.93-26.65 154.78-26.65L154.78-26.65Q153.23-26.65 151.93-25.45 150.63-24.25 150.23-22.6L150.23-22.6 150.23-22.65Q149.73-20.45 149.73-17.1L149.73-17.1Q149.73-15.45 149.78-14.6L149.78-14.6 149.78-14.65Q149.98-13.25 150.08-11.85L150.08-11.85Q150.13-11.55 150.26-10.2 150.38-8.85 150.73-7.65L150.73-7.65 150.68-7.7 150.83-7.4Q151.83-6.8 153.13-6.8L153.13-6.8Q155.18-6.8 156.43-8.2L156.43-8.2 156.38-8.15Q157.08-9 157.23-9.83 157.38-10.65 157.38-13.05L157.38-13.05 157.38-15 157.38-17.4 157.28-20.8Z" opacity="1" transform="matrix(1,0,0,1,0,0)" fill="#000000" class="wordmark-text-0" data-fill-palette-color="primary" id="text-0"></path></svg></g></svg></g></svg></g></svg></g></svg></g></svg></g></svg></g><defs></defs></svg><rect width="395.52" height="104.13281961471102" fill="none" stroke="none" visibility="hidden"></rect></g></svg></g></svg>